<svg xmlns="http://www.w3.org/2000/svg" viewBox="2977 993 24 24"><defs><style>.a{fill:none;}.b{fill:#fff;}</style></defs><g transform="translate(2977 993)"><rect class="a" width="24" height="24"/><path class="b" d="M19.053,19.053A9.985,9.985,0,0,1,2.461,9H.4A11.964,11.964,0,0,0,20.461,20.462L22,22V17H17Z"/><path class="b" d="M6,12a5.946,5.946,0,0,0,.35,2H9V10H6.349A5.971,5.971,0,0,0,6,12Z"/><path class="b" d="M9,6.809A6.025,6.025,0,0,0,6.809,9H9Z"/><rect class="b" width="4" height="4" transform="translate(10 10)"/><path class="b" d="M14,6.349a5.905,5.905,0,0,0-4,0V9h4Z"/><path class="b" d="M15,6.809V9h2.191A6.025,6.025,0,0,0,15,6.809Z"/><path class="b" d="M15,17.19A6.01,6.01,0,0,0,17.189,15H15Z"/><path class="b" d="M9,17.19V15H6.811A6.01,6.01,0,0,0,9,17.19Z"/><path class="b" d="M15,14h2.65a5.9,5.9,0,0,0,0-4H15Z"/><path class="b" d="M10,17.651a5.905,5.905,0,0,0,4,0V15H10Z"/><path class="b" d="M12,0A11.926,11.926,0,0,0,3.539,3.539L2,2V7H7L4.947,4.947A9.985,9.985,0,0,1,21.539,15H23.6A11.952,11.952,0,0,0,12,0Z"/></g></svg>