<svg xmlns="http://www.w3.org/2000/svg" viewBox="4341 -459 72 72"><defs><style>.a{fill:#fff;}.b{fill:#00c1ff;opacity:0.3;}.c,.d{fill:none;}.c{stroke:#0050db;stroke-linecap:round;stroke-linejoin:round;stroke-width:2px;}</style></defs><g transform="translate(4341 -459)"><g transform="translate(5 13)"><rect class="a" width="60" height="33"/><path class="b" d="M1.5,15V4.5H12Z" transform="translate(-1.5 -4.5)"/><path class="b" d="M28.5,15V4.5H18Z" transform="translate(31.5 -4.5)"/><path class="b" d="M51,22.5H12L1.5,12V22.5h3v6h6v6h42v-6h6v-6h3V12Z" transform="translate(-1.5 10.5)"/><line class="c" y1="10.5" x2="10.5"/><line class="c" x2="10.5" y2="10.5" transform="translate(0 22.5)"/><rect class="c" width="60" height="33"/><line class="c" x1="10.5" y1="10.5" transform="translate(49.5)"/><line class="c" x1="10.5" y2="10.5" transform="translate(49.5 22.5)"/><line class="c" x2="54" transform="translate(3 39)"/><line class="c" x2="42" transform="translate(9 45)"/><g transform="translate(24 9)"><path class="c" d="M21.5,8.5H11.75l-2.25,3,2.25,3h7.5l2.25,3-2.25,3H9.5" transform="translate(-9.5 -5.5)"/><line class="c" y1="3" transform="translate(6)"/><line class="c" y1="3" transform="translate(6 15)"/></g></g><rect class="d" width="72" height="72"/></g></svg>