<svg xmlns="http://www.w3.org/2000/svg" viewBox="4871 -459 72 72"><defs><style>.a{fill:#fff;}.b{fill:#00c1ff;opacity:0.3;}.c,.d,.e,.f{fill:none;}.c{stroke:#1078ff;}.c,.d,.e{stroke-linecap:round;}.c,.d{stroke-linejoin:round;stroke-miterlimit:10;}.d,.e{stroke:#0050db;stroke-width:2px;}</style></defs><g transform="translate(4871 -459)"><g transform="translate(3 6)"><path class="a" d="M47.5,42.5V17L29.5,5l-18,12V42.5l-9,9h21v6l6,3,6-3v-6h21Z" transform="translate(3.5 -0.5)"/><path class="b" d="M11.5,5l18,12V42.5l9,9h-27Z" transform="translate(21.5 -0.5)"/><line class="c" y1="4.5" transform="translate(33)"/><path class="d" d="M9.5,20.5v6l6,3,6-3v-6" transform="translate(17.5 30.5)"/><path class="d" d="M.5,21.5V9.5l9-6" transform="translate(-0.5 -3.5)"/><path class="d" d="M2.5,18.7v-9L10,4.9" transform="translate(3.5 -0.7)"/><path class="d" d="M28.5,21.5V9.5l-9-6" transform="translate(37.5 -3.5)"/><path class="d" d="M25.5,18.7v-9L18,4.9" transform="translate(34.5 -0.7)"/><path class="e" d="M0,4.5V0" transform="translate(33)"/><path class="d" d="M47.5,17V42.5l9,9H2.5l9-9V17l18-12Z" transform="translate(3.5 -0.5)"/></g><rect class="f" width="72" height="72"/></g></svg>