<svg xmlns="http://www.w3.org/2000/svg" viewBox="4606 -459 72 72"><defs><style>.a{fill:#fff;}.b{fill:#00c1ff;opacity:0.3;}.c,.d{fill:none;}.c{stroke:#0050db;stroke-linecap:round;stroke-linejoin:round;stroke-width:2px;}</style></defs><g transform="translate(4606 -459)"><g transform="translate(2 1)"><path class="a" d="M8.5,5.75,17.5.5l9,5.25v10.5l-9,5.25-9-5.25Z" transform="translate(15.5 -0.5)"/><path class="a" d="M15.5,17.5,6.5,31l-6-1.5v12l6-1.5,9,10.5v6l9-6h12l13.5,6L48.5,49,56,34,48.5,14.5H23L15.5,7Z" transform="translate(-0.5 12.5)"/><path class="b" d="M53.8,29.4,42.5,11.5h-24l-9,15H.5v6l6-1.5,9,10.5v6l9-6h12l13.5,6L48.5,40Z" transform="translate(-0.5 21.5)"/><path class="b" d="M26.5,2.25v10.5L17.5,18l-9-5.25Z" transform="translate(15.5 3)"/><line class="c" y2="3" transform="translate(15 39)"/><path class="c" d="M19,21l4.5-7.5,4.5,6L32.5,15" transform="translate(36.5 25.5)"/><line class="c" x2="12" transform="translate(27.321 33)"/><path class="c" d="M8.5,5.75,17.5.5l9,5.25v10.5l-9,5.25-9-5.25Z" transform="translate(15.5 -0.5)"/><path class="c" d="M15.5,17.5,6.5,31l-6-1.5v12l6-1.5,9,10.5v6l9-6h12l13.5,6L48.5,49,56,34,48.5,14.5H23L15.5,7Z" transform="translate(-0.5 12.5)"/></g><rect class="d" width="72" height="72"/></g></svg>