<svg xmlns="http://www.w3.org/2000/svg" xmlns:xlink="http://www.w3.org/1999/xlink" viewBox="0 0 80 80"><defs><style>.a{fill:#32a8d2;stroke:#707070;}.b{clip-path:url(#a);}.c,.d{fill:#02242b;}.c{opacity:0.2;}</style><clipPath id="a"><rect class="a" width="80" height="80" transform="translate(1034 991)"/></clipPath></defs><g class="b" transform="translate(-1034 -991)"><g transform="translate(1033.994 991)"><path class="c" d="M48.008,37.339H28V58.676h24V37.339Zm-8,10.668a2.667,2.667,0,1,1,2.667-2.667A2.675,2.675,0,0,1,40.006,48.008Z"/><path class="d" d="M67.16,10.768,40.49.1a1.259,1.259,0,0,0-.983,0L12.835,10.768A1.342,1.342,0,0,0,12,12V53.608A17.417,17.417,0,0,0,20.42,68.477l18.9,11.335a1.339,1.339,0,0,0,1.367,0l18.9-11.335a17.454,17.454,0,0,0,8.418-14.869V12a1.316,1.316,0,0,0-.85-1.234Zm-1.817,42.84a14.775,14.775,0,0,1-7.118,12.585L40.006,77.129,21.787,66.194a14.747,14.747,0,0,1-7.118-12.569V12.9L40.006,2.767,65.344,12.9Z"/><path class="d" d="M30.671,29.338v6.668H28a1.337,1.337,0,0,0-1.334,1.334V58.676A1.337,1.337,0,0,0,28,60.009h24a1.337,1.337,0,0,0,1.334-1.334V37.339a1.337,1.337,0,0,0-1.334-1.334H49.341V29.338a9.335,9.335,0,1,0-18.67,0Zm20,28H29.338V38.673H50.675Zm-4-28v6.668H33.339V29.338a6.668,6.668,0,0,1,13.335,0Z"/><path class="d" d="M40.006,41.34a3.988,3.988,0,0,0-1.334,7.751v5.584H41.34V49.091a3.99,3.99,0,0,0-1.334-7.751Zm0,5.334A1.334,1.334,0,1,1,41.34,45.34,1.337,1.337,0,0,1,40.006,46.674Z"/></g></g></svg>