<svg xmlns="http://www.w3.org/2000/svg" xmlns:xlink="http://www.w3.org/1999/xlink" viewBox="0 0 80 80"><defs><style>.a,.b{fill:#32a8d2;}.a{stroke:#707070;}.c{clip-path:url(#a);}.d{opacity:0.2;}.e{clip-path:url(#b);}</style><clipPath id="a"><rect class="a" width="80" height="80" transform="translate(252 991)"/></clipPath><clipPath id="b"><rect class="b" width="15.107" height="15.107"/></clipPath></defs><g class="c" transform="translate(-252 -991)"><g transform="translate(252 1006.814)"><g class="d"><path class="b" d="M31.627,27.907A11.163,11.163,0,0,1,42.79,16.744H20.464a5.466,5.466,0,0,1-5.348,5.581h-.234V33.488a5.464,5.464,0,0,1,5.581,5.348c0,.078,0,.155,0,.234H42.79A11.163,11.163,0,0,1,31.627,27.907Z"/><path class="b" d="M65.115,16.744H42.79a11.163,11.163,0,0,1,0,22.325H65.115a5.466,5.466,0,0,1,5.349-5.581H70.7V22.325a5.466,5.466,0,0,1-5.581-5.348C65.113,16.9,65.113,16.823,65.115,16.744Z"/></g><path class="b" d="M78.139,7.442H7.442A1.861,1.861,0,0,0,5.581,9.3v37.21a1.861,1.861,0,0,0,1.861,1.859h70.7A1.861,1.861,0,0,0,80,46.512V9.3A1.861,1.861,0,0,0,78.139,7.442ZM76.278,44.651H9.3V11.163H76.278Z"/><path class="b" d="M70.7,5.581h3.722V1.861A1.861,1.861,0,0,0,72.558,0H1.861A1.861,1.861,0,0,0,0,1.861V39.069a1.861,1.861,0,0,0,1.861,1.861H3.72V3.72H70.7Z"/><path class="b" d="M42.79,40.931A13.024,13.024,0,1,0,29.768,27.907h0A13.039,13.039,0,0,0,42.79,40.931Zm0-22.325a9.3,9.3,0,1,1-9.3,9.3,9.3,9.3,0,0,1,9.3-9.3Z"/><path class="b" d="M14.883,35.349a3.72,3.72,0,0,1,3.722,3.72,1.861,1.861,0,0,0,1.859,1.861H31.627V37.208H22.09a7.47,7.47,0,0,0-5.346-5.344V23.949a7.47,7.47,0,0,0,5.346-5.344h9.537V14.883H20.464a1.861,1.861,0,0,0-1.859,1.861,3.72,3.72,0,0,1-3.722,3.72,1.861,1.861,0,0,0-1.859,1.861V33.488A1.861,1.861,0,0,0,14.883,35.349Z"/><path class="b" d="M68.837,23.949v7.915a7.467,7.467,0,0,0-5.349,5.344H53.953v3.722H65.115a1.861,1.861,0,0,0,1.861-1.861,3.72,3.72,0,0,1,3.72-3.72,1.861,1.861,0,0,0,1.861-1.861V22.325A1.861,1.861,0,0,0,70.7,20.464a3.72,3.72,0,0,1-3.72-3.72,1.861,1.861,0,0,0-1.861-1.861H53.953v3.722h9.535A7.467,7.467,0,0,0,68.837,23.949Z"/><path class="b" d="M68.837,14.883h3.72v3.722h-3.72Z"/><path class="b" d="M68.837,37.208h3.72v3.722h-3.72Z"/><path class="b" d="M13.024,37.208h3.72v3.722h-3.72Z"/><path class="b" d="M13.024,14.883h3.72v3.722h-3.72Z"/><g class="e" transform="translate(35.175 20.29)"><path class="b" d="M9.712,2.158H8.632V0H6.474V2.158H5.395A2.158,2.158,0,0,0,3.237,4.317V6.474A2.158,2.158,0,0,0,5.395,8.632H9.712v2.159H5.395V9.712H3.237v1.079a2.158,2.158,0,0,0,2.158,2.158H6.474v2.158H8.632V12.949H9.712a2.158,2.158,0,0,0,2.158-2.158V8.632A2.158,2.158,0,0,0,9.712,6.474H5.395V4.317H9.712V5.395h2.158V4.317A2.158,2.158,0,0,0,9.712,2.158Z"/><path class="b" d="M12.949,6.474h2.158V8.632H12.949Z"/><path class="b" d="M0,6.474H2.158V8.632H0Z"/></g></g></g></svg>