<svg xmlns="http://www.w3.org/2000/svg" xmlns:xlink="http://www.w3.org/1999/xlink" viewBox="0 0 80 80"><defs><style>.a,.d{fill:#32a8d2;}.a{stroke:#707070;}.b{clip-path:url(#a);}.c{opacity:0.2;}</style><clipPath id="a"><rect class="a" width="80" height="80" transform="translate(773 991)"/></clipPath></defs><g class="b" transform="translate(-773 -991)"><g transform="translate(773 991.008)"><g class="c"><path class="d" d="M74.783,36.519h-17.4a3.475,3.475,0,0,0-3.473,3.473v6.961a3.475,3.475,0,0,0,3.473,3.473h17.4a3.475,3.475,0,0,0,3.473-3.473V39.992A3.486,3.486,0,0,0,74.783,36.519Z"/><path class="d" d="M12.179,5.217a6.961,6.961,0,0,0,0,13.923H71.31V5.217Z"/><circle class="d" cx="17.396" cy="17.396" r="17.396" transform="translate(1.728 39.992)"/></g><path class="d" d="M74.783,34.775H73.039V5.217a1.746,1.746,0,0,0-1.744-1.744H12.179a8.7,8.7,0,0,0-8.69,8.69v27.83H6.961v-20.9a8.516,8.516,0,0,0,5.217,1.777H69.566V34.775H57.387a5.211,5.211,0,0,0-5.217,5.217v6.961a5.211,5.211,0,0,0,5.217,5.217H69.566V67.821a1.746,1.746,0,0,1-1.744,1.744h-31.3v3.473h31.3a5.211,5.211,0,0,0,5.217-5.217V52.17h1.744A5.211,5.211,0,0,0,80,46.953h0V39.992A5.232,5.232,0,0,0,74.783,34.775ZM6.961,12.179a5.211,5.211,0,0,1,5.217-5.217H69.566V17.4H12.179A5.222,5.222,0,0,1,6.961,12.179Zm69.55,34.775A1.746,1.746,0,0,1,74.767,48.7H57.387a1.746,1.746,0,0,1-1.744-1.744V39.992a1.746,1.746,0,0,1,1.744-1.744h17.4a1.746,1.746,0,0,1,1.744,1.744l-.016,6.961Z"/><path class="d" d="M59.132,41.736H62.6v3.473H59.132Z"/><path class="d" d="M19.124,38.264a19.124,19.124,0,1,0,19.14,19.124A19.12,19.12,0,0,0,19.124,38.264Zm0,34.775A15.651,15.651,0,1,1,34.775,57.387,15.655,15.655,0,0,1,19.124,73.039Z"/><path class="d" d="M22.613,48.7H20.868V45.225H17.4V48.7H15.651a3.475,3.475,0,0,0-3.473,3.473v3.473a3.475,3.475,0,0,0,3.473,3.473h6.961V62.6H15.651V60.86H12.179V62.6a3.475,3.475,0,0,0,3.473,3.473H17.4V69.55h3.473V66.077h1.744A3.475,3.475,0,0,0,26.085,62.6V59.132a3.475,3.475,0,0,0-3.473-3.473H15.651V52.17h6.961v1.744h3.473V52.17A3.475,3.475,0,0,0,22.613,48.7Z"/><path class="d" d="M27.83,55.643H31.3v3.473H27.83V55.643Z"/><path class="d" d="M6.961,55.643h3.473v3.473H6.961Z"/><path class="d" d="M10.434,10.434H67.821v3.473H10.434Z"/></g></g></svg>