<svg xmlns="http://www.w3.org/2000/svg" viewBox="7642 2707 72 72"><defs><style>.a{fill:#fff;}.b{fill:#cce7ff;}.c,.d{fill:none;}.c{stroke:#15c;stroke-linecap:round;stroke-linejoin:round;stroke-miterlimit:10;stroke-width:2px;}</style></defs><g transform="translate(7642 2707)"><g transform="translate(1.5 1.5)"><path class="a" d="M62,24.5l-9.6-3.6L51.5,17,34.4,32.6,15.5,17l-1.2,3.9L5,24.5.5,36.5h66Z" transform="translate(-0.5 32.5)"/><path class="a" d="M11.5,24.5h0v3h-6V35l6,3v6l18,7.5,18-7.5V38l6-3V27.5h-6v-3h0l1.5-3h7.5L46,15.5,41.5.5,29.5,5,17.5.5,13,15.5l-10.5,6H10Z" transform="translate(3.5 -0.5)"/><path class="b" d="M14.3,17.5l-4.2,9.9,5.4,3.9,3.3-3Z" transform="translate(18.7 33.5)"/><path class="b" d="M17.9,7.5,6.8,18.6l.6.9h7.5l6-6,6,6h7.5l6-12Z" transform="translate(12.1 13.5)"/><path class="b" d="M13,12.9l-10.5,6h54L46,12.9,42.7,1.8,29.5,6.9,16.3,1.8Z" transform="translate(3.5 2.1)"/><path class="c" d="M41.5,8.5V28l-18,7.5L5.5,28V8.5" transform="translate(9.5 15.5)"/><path class="c" d="M14.3,18.3,5,21.9.5,33.9" transform="translate(-0.5 35.1)"/><path class="c" d="M31.9,33.9l-4.5-12-9.6-3.6" transform="translate(34.1 35.1)"/><path class="c" d="M17.5,9.5h6V17l-6,3" transform="translate(33.5 17.5)"/><path class="c" d="M9.5,9.5h-6V17l6,3" transform="translate(5.5 17.5)"/><path class="c" d="M19,15.5,14.5,14,10,15.5" transform="translate(18.5 26.5)"/><line class="c" x2="33" transform="translate(16.5 15)"/><path class="c" d="M31.5,36.5,7.5,17l-3,10.5H12l-1.5,9" transform="translate(7.5 32.5)"/><path class="c" d="M11.8,32.6,28.9,17l3,12h-6l1.5,7.5" transform="translate(22.1 32.5)"/><path class="c" d="M46,15.5,41.5.5,29.5,5,17.5.5,13,15.5l-10.5,6h54Z" transform="translate(3.5 -0.5)"/><path class="c" d="M44,7.5l-6,12H30.5l-6-6-6,6H11L5,7.5Z" transform="translate(8.5 13.5)"/><path class="c" d="M10.2,27.4l3.9-9.9,4.5,10.8" transform="translate(18.9 33.5)"/></g><rect class="d" width="72" height="72"/></g></svg>