<svg xmlns="http://www.w3.org/2000/svg" viewBox="6689 -227 72 72"><defs><style>.a{fill:#00c1ff;opacity:0.3;}.b,.c{fill:none;}.b{stroke:#fff;stroke-linecap:round;stroke-linejoin:round;stroke-miterlimit:10;stroke-width:2px;}</style></defs><g transform="translate(6689 -227)"><g transform="translate(3 4)"><rect class="a" width="36" height="6" transform="translate(0 36)"/><path class="a" d="M38.5,16.3V29.8l-12,6.6-12-6.6Z" transform="translate(27.5 28.1)"/><path class="b" d="M60.5,1.5,30.5,30,.5,1.5" transform="translate(-0.5 -1.5)"/><line class="b" y1="21" x2="22.2" transform="translate(0 21)"/><line class="b" x2="11.1" y2="10.5" transform="translate(37.8 21)"/><path class="b" d="M60.5,34.5V1.5H.5v42h36" transform="translate(-0.5 -1.5)"/><path class="b" d="M16.5,21.5,21,26l7.5-9" transform="translate(31.5 29.5)"/><path class="b" d="M38.5,34.4,26.5,41l-12-6.6V20.9l12-6.9,12,6.9Z" transform="translate(27.5 23.5)"/></g><rect class="c" width="72" height="72"/></g></svg>