<svg xmlns="http://www.w3.org/2000/svg" viewBox="6105 280 72 72"><defs><style>.a{fill:#00c1ff;opacity:0.3;}.b,.d{fill:none;}.b{stroke:#0050db;stroke-linecap:round;stroke-linejoin:round;stroke-width:2px;}.c{fill:#0050db;}</style></defs><g transform="translate(6105 280)"><g transform="translate(6 1)"><path class="a" d="M55.155,16.663,31.5,29.674,7.845,16.663,1.5,19.924l30,17.25,30-17.25Z" transform="translate(-1.5 31.826)"/><path class="a" d="M34.022,18.63l6-5.988-2.97-5.214L32.183,8.682l-6.549,6.549,2.388,1.413v9l-9,5.325-5.736-3.393L7.739,33.123l1.521-.39,4.983,2.889,1.779,6.522h6L23.8,35.622l4.983-2.889,8.268,2.127,2.97-5.214-6-5.988Z" transform="translate(10.978 13.356)"/><path class="b" d="M61.5,52.25,31.5,69.5,1.5,52.25V17.75L31.5.5l30,17.25Z" transform="translate(-1.5 -0.5)"/><path class="b" d="M8.5,14.05l9-5.325,9,5.325v9l-9,5.325-9-5.325Z" transform="translate(12.5 15.95)"/><path class="c" d="M15.194,13.3h0M13.5,11a.6.6,0,0,0-.423.177l-2.4,2.4a.6.6,0,0,0,0,.849l2.4,2.4a.6.6,0,0,0,.849,0l2.4-2.4a.6.6,0,0,0,0-.849l-2.4-2.4A.6.6,0,0,0,13.5,11Z" transform="translate(16.501 20.5)"/><path class="b" d="M40.5,23.486l6-5.988-2.973-5.214-8.265,2.127-4.983-2.889L28.5,5h-6l-1.779,6.522-4.983,2.889L7.47,12.284,4.5,17.5l6,5.988v5.028L4.5,34.5l2.97,5.214,8.268-2.127,4.983,2.889L22.5,47h6l1.779-6.522,4.983-2.889,8.265,2.127L46.5,34.5l-6-5.988Z" transform="translate(4.5 8.5)"/></g><rect class="d" width="72" height="72"/></g></svg>