<svg xmlns="http://www.w3.org/2000/svg" viewBox="7649 1117 72 72"><defs><style>.a{fill:#fff;}.b{fill:#00c1ff;opacity:0.3;}.c{fill:#cce7ff;}.d,.e{fill:none;}.d{stroke:#0050db;stroke-linecap:round;stroke-linejoin:round;stroke-width:2px;}</style></defs><g transform="translate(7649 1117)"><g transform="translate(3 -6)"><path class="a" d="M.5,15.5v54h66v-54Z" transform="translate(-0.5 -0.5)"/><path class="a" d="M22.5,27l-9,4.5L4.5,27V16.5l9-4.5,9,4.5Z" transform="translate(7.5 22.5)"/><path class="b" d="M22.5,19.5H12l-7.5-3,9-4.5,9,4.5Z" transform="translate(7.5 22.5)"/><g transform="translate(0 27)"><path class="b" d="M6.149,40.715,10.2,39.5l15,4.5v7.5h30V9.5Z" transform="translate(10.798 -9.5)"/><path class="c" d="M.5,26.046h6V22.227Z" transform="translate(-0.5 15.954)"/></g><line class="d" x2="12" transform="translate(42 39)"/><line class="d" x2="18" transform="translate(42 48)"/><line class="d" x2="18" transform="translate(42 57)"/><line class="d" x2="66" transform="translate(0 27)"/><path class="d" d="M22.5,27l-9,4.5L4.5,27V16.5l9-4.5,9,4.5Z" transform="translate(7.5 22.5)"/><path class="d" d="M32.5,31.5V24l-15-4.5L2.5,24v7.5" transform="translate(3.5 37.5)"/><line class="d" y2="6" transform="translate(21 63)"/><path class="d" d="M22.5,19.5H12l-7.5-3,9-4.5,9,4.5Z" transform="translate(7.5 22.5)"/><path class="d" d="M26.089,5.5H66.5v54H.5V5.5h27" transform="translate(-0.5 9.5)"/></g><rect class="e" width="72" height="72"/></g></svg>