<svg xmlns="http://www.w3.org/2000/svg" viewBox="7904 3572 72 72"><defs><style>.a{fill:#fff;}.b{fill:#b1ecff;}.c,.d{fill:none;}.c{stroke:#0050db;stroke-linecap:round;stroke-linejoin:round;stroke-miterlimit:10;stroke-width:2px;}</style></defs><g transform="translate(7904 3572)"><g transform="translate(3 7)"><path class="a" d="M26.5,14.5h-12L7,2.5H34Z" transform="translate(12.5 -2.5)"/><path class="a" d="M16.4,13.5l5.1,9.3L13.7,36.6.5,13.5Z" transform="translate(-0.5 19.5)"/><path class="a" d="M20.6,26.9l-5.1-9.3L23.3,3.8,36.5,26.9Z" transform="translate(29.5 0.1)"/><path class="a" d="M21.5,17.3l-5.1,9.6H.5L13.7,3.8Z" transform="translate(-0.5 0.1)"/><path class="a" d="M15.5,22.8l5.1-9.3H36.5L23.3,36.6Z" transform="translate(29.5 19.5)"/><path class="a" d="M14.5,18.5h12l7.5,12H7Z" transform="translate(12.5 29.5)"/><path class="b" d="M8.3,4.5l3.6,6h12l3.9-6Z" transform="translate(15.1 1.5)"/><path class="b" d="M12.3,6.3l-9,15.6h7.5l5.1-9.6Z" transform="translate(5.1 5.1)"/><path class="b" d="M19.1,6.3l9,15.6H20.6l-5.1-9.6Z" transform="translate(29.5 5.1)"/><path class="b" d="M8.3,24.5l3.6-6h12l3.9,6Z" transform="translate(15.1 29.5)"/><path class="b" d="M12.3,29.1l-9-15.6h7.5l5.1,9.6Z" transform="translate(5.1 19.5)"/><path class="b" d="M19.1,29.1l9-15.6H20.6l-5.1,9.6Z" transform="translate(29.5 19.5)"/><path class="c" d="M26.5,14.5h-12L7,2.5H34Z" transform="translate(12.5 -2.5)"/><path class="c" d="M16.4,13.5l5.1,9.3L13.7,36.6.5,13.5Z" transform="translate(-0.5 19.5)"/><path class="c" d="M20.6,26.9l-5.1-9.3L23.3,3.8,36.5,26.9Z" transform="translate(29.5 0.1)"/><path class="c" d="M21.5,17.3l-5.1,9.6H.5L13.7,3.8Z" transform="translate(-0.5 0.1)"/><path class="c" d="M15.5,22.8l5.1-9.3H36.5L23.3,36.6Z" transform="translate(29.5 19.5)"/><path class="c" d="M14.5,18.5h12l7.5,12H7Z" transform="translate(12.5 29.5)"/></g><rect class="d" width="72" height="72"/></g></svg>