<svg xmlns="http://www.w3.org/2000/svg" viewBox="9118 -1369 32 32"><defs><style>.a,.d{fill:none;}.a{stroke:#fff;opacity:0;}.b{fill:#fff;stroke:rgba(0,0,0,0);}.c{stroke:none;}</style></defs><g transform="translate(8421 -1430)"><g transform="translate(318 1)"><g class="a" transform="translate(379 60)"><circle class="c" cx="16" cy="16" r="16"/><circle class="d" cx="16" cy="16" r="15.5"/></g></g><path class="b" d="M-5.134-3.552v-.542a2.4,2.4,0,0,1,.3-1.223,3.935,3.935,0,0,1,1.1-1.106,4.6,4.6,0,0,0,1.014-.894,1.294,1.294,0,0,0,.245-.769.833.833,0,0,0-.352-.725,1.677,1.677,0,0,0-.981-.249,5.636,5.636,0,0,0-2.5.718l-.8-1.6a6.978,6.978,0,0,1,3.464-.916,3.685,3.685,0,0,1,2.4.725A2.368,2.368,0,0,1-.359-8.2,2.572,2.572,0,0,1-.725-6.812,5.219,5.219,0,0,1-2.117-5.493a4.3,4.3,0,0,0-.89.791,1.228,1.228,0,0,0-.187.71v.439Zm-.234,2.5a1.228,1.228,0,0,1,.33-.93,1.337,1.337,0,0,1,.959-.315,1.3,1.3,0,0,1,.941.322,1.225,1.225,0,0,1,.333.923,1.225,1.225,0,0,1-.337.912A1.275,1.275,0,0,1-4.08.2a1.313,1.313,0,0,1-.952-.326A1.219,1.219,0,0,1-5.369-1.047Z" transform="translate(717 83)"/></g></svg>