<svg xmlns="http://www.w3.org/2000/svg" viewBox="9367 -1721 72 72"><defs><style>.a{fill:#fff;}.b{fill:#00c1ff;opacity:0.3;}.c,.d{fill:none;}.c{stroke:#0050db;stroke-linecap:round;stroke-linejoin:round;stroke-miterlimit:10;stroke-width:2px;}</style></defs><g transform="translate(9367 -1721)"><g transform="translate(12 3)"><path class="a" d="M44.5,20,28,12.5,11.5,20V36.5L4,45.5H52l-7.5-9Z" transform="translate(-4 20.5)"/><path class="a" d="M44.5,10.5l7.5-9H4l7.5,9V27L28,34.5,44.5,27Z" transform="translate(-4 -1.5)"/><path class="b" d="M8,30.5l12-15,12,15Z" transform="translate(4 26.5)"/><path class="b" d="M12,1.5H36l-7.5,9H12Z" transform="translate(12 -1.5)"/><path class="b" d="M12,29.5H36l-7.5-9H12Z" transform="translate(12 36.5)"/><path class="c" d="M6.5,52.5h33V36L6.5,21V4.5h33V21L6.5,36Z" transform="translate(1 4.5)"/><path class="c" d="M44.5,10.5h-33L4,1.5H52Z" transform="translate(-4 -1.5)"/><path class="c" d="M52,29.5H4l7.5-9h33Z" transform="translate(-4 36.5)"/><path class="c" d="M8,30.5l12-15,12,15Z" transform="translate(4 26.5)"/></g><rect class="d" width="72" height="72"/></g></svg>