<svg xmlns="http://www.w3.org/2000/svg" viewBox="3237 993 24 24"><defs><style>.a{fill:none;}.b{fill:#fff;}</style></defs><g transform="translate(3237 993)"><rect class="a" width="24" height="24"/><path class="b" d="M21,10H20V8a2,2,0,0,0-2-2h-.382L15.894,2.553a1,1,0,0,0-1.266-.481L4.807,6H4A2,2,0,0,0,2,8V20a2,2,0,0,0,2,2H18a2,2,0,0,0,2-2V18h1a1,1,0,0,0,1-1V11A1,1,0,0,0,21,10ZM14.517,4.27,15.382,6H10.193ZM18,20H4V8H18v2H15a1,1,0,0,0-.707.294l-3,3a1,1,0,0,0,0,1.414l3,3A1,1,0,0,0,15,18h3Zm2-4H15.414l-2-2,2-2H20Z"/><circle class="b" cx="1" cy="1" r="1" transform="translate(15 13)"/></g></svg>