<svg xmlns="http://www.w3.org/2000/svg" viewBox="13377 -796 72 72">
  <defs>
    <style>
      .cls-1 {
        fill: #fff;
      }

      .cls-2 {
        fill: #cce7ff;
      }

      .cls-3 {
        fill: #00c1ff;
        opacity: 0.3;
      }

      .cls-4, .cls-5 {
        fill: none;
      }

      .cls-4 {
        stroke: #0050db;
        stroke-linecap: round;
        stroke-linejoin: round;
        stroke-width: 2px;
      }
    </style>
  </defs>
  <g id="receipt-envelope" transform="translate(13377 -796)">
    <g id="Duotone" transform="translate(3 3)">
      <path id="Path_8896" data-name="Path 8896" class="cls-1" d="M57.5,35.439V1.5H9.5V35.439L.5,27V67.5h66V27Z" transform="translate(-0.5 -1.5)"/>
      <path id="Path_8897" data-name="Path 8897" class="cls-2" d="M58.507,21.5h-50l-8,6,65.976-.018Z" transform="translate(-0.484 38.5)"/>
      <g id="Group_3483" data-name="Group 3483" transform="translate(0 19.5)">
        <path id="Path_8898" data-name="Path 8898" class="cls-3" d="M28.5,14l-9,8.436V8Z" transform="translate(37.5 -8)"/>
        <path id="Path_8899" data-name="Path 8899" class="cls-3" d="M.5,14l9,8.436V8Z" transform="translate(-0.5 -8)"/>
      </g>
      <g id="Group_3487" data-name="Group 3487">
        <g id="Group_3485" data-name="Group 3485">
          <path id="Path_8900" data-name="Path 8900" class="cls-4" d="M66.5,10V50.5H.5V10" transform="translate(-0.5 15.5)"/>
          <g id="Group_3484" data-name="Group 3484" transform="translate(0 19.5)">
            <line id="Line_1873" data-name="Line 1873" class="cls-4" x1="9" y2="6"/>
            <line id="Line_1874" data-name="Line 1874" class="cls-4" x1="9" y1="6" transform="translate(57)"/>
          </g>
          <path id="Path_8901" data-name="Path 8901" class="cls-4" d="M.5,50.5l24-18L.5,10" transform="translate(-0.5 15.5)"/>
          <path id="Path_8902" data-name="Path 8902" class="cls-4" d="M38.5,50.5l-24-18L38.5,10" transform="translate(27.5 15.5)"/>
          <path id="Path_8903" data-name="Path 8903" class="cls-4" d="M3.5,35.439V1.5h48V35.439" transform="translate(5.5 -1.5)"/>
          <line id="Line_1875" data-name="Line 1875" class="cls-4" x2="18" transform="translate(24 48)"/>
        </g>
        <g id="Group_3486" data-name="Group 3486" transform="translate(37.5 6)">
          <path id="Path_8904" data-name="Path 8904" class="cls-4" d="M20.5,4.5h-6L13,7.5l1.5,3h6l1.5,3-1.5,3h-6" transform="translate(-13 -1.5)"/>
          <line id="Line_1876" data-name="Line 1876" class="cls-4" y1="3" transform="translate(4.5)"/>
          <line id="Line_1877" data-name="Line 1877" class="cls-4" y1="3" transform="translate(4.5 15)"/>
        </g>
        <line id="Line_1878" data-name="Line 1878" class="cls-4" x2="9" transform="translate(18 12)"/>
        <line id="Line_1879" data-name="Line 1879" class="cls-4" x2="9" transform="translate(18 18)"/>
        <line id="Line_1880" data-name="Line 1880" class="cls-4" x2="12" transform="translate(18 24)"/>
        <line id="Line_1881" data-name="Line 1881" class="cls-4" x2="18" transform="translate(18 30)"/>
      </g>
    </g>
    <g id="Frames-24px">
      <rect id="Rectangle_7308" data-name="Rectangle 7308" class="cls-5" width="72" height="72"/>
    </g>
  </g>
</svg>
