<?xml version="1.0" standalone="no"?>
<!DOCTYPE svg PUBLIC "-//W3C//DTD SVG 20010904//EN"
 "http://www.w3.org/TR/2001/REC-SVG-20010904/DTD/svg10.dtd">
<svg version="1.0" xmlns="http://www.w3.org/2000/svg"
 width="270.000000pt" height="270.000000pt" viewBox="0 0 270.000000 270.000000"
 preserveAspectRatio="xMidYMid meet">
<metadata>
Created by potrace 1.11, written by Peter Selinger 2001-2013
</metadata>
<g transform="translate(0.000000,270.000000) scale(0.100000,-0.100000)"
fill="#000000" stroke="none">
<path d="M1228 2611 c-38 -10 -115 -46 -174 -81 -59 -34 -128 -73 -153 -87
-25 -14 -54 -33 -65 -42 -10 -9 -21 -15 -25 -15 -3 1 -59 -29 -123 -67 -64
-38 -121 -69 -127 -69 -6 0 -11 -3 -11 -8 0 -4 -21 -18 -47 -32 -167 -86 -255
-180 -302 -326 -18 -55 -20 -92 -20 -524 -1 -504 1 -526 56 -634 51 -101 120
-156 368 -296 22 -13 54 -31 70 -41 17 -10 41 -24 55 -32 14 -8 112 -64 217
-126 256 -148 272 -154 403 -155 149 -1 109 -20 750 352 277 160 341 217 393
349 29 74 30 90 32 558 3 416 1 467 -15 530 -42 162 -115 238 -361 380 -95 55
-183 105 -194 111 -11 5 -60 34 -110 64 -49 29 -106 62 -125 73 -19 10 -64 36
-100 57 -36 21 -87 46 -115 55 -74 26 -196 29 -277 6z m218 -896 c1 -201 5
-330 12 -346 15 -38 67 -86 107 -99 46 -15 122 -5 159 21 l28 21 64 -63 c60
-59 63 -64 47 -81 -9 -10 -46 -33 -81 -50 -58 -29 -74 -32 -151 -32 -66 0 -97
5 -133 22 -27 11 -48 18 -49 14 -1 -4 -2 -38 -3 -77 -6 -183 -100 -317 -257
-366 -73 -23 -126 -24 -203 -4 -50 13 -136 61 -150 83 -5 8 28 46 86 101 l36
33 31 -23 c23 -17 44 -22 94 -23 79 -1 126 27 159 94 22 45 23 49 23 573 l0
528 90 -3 90 -3 1 -320z"/>
</g>
</svg>
