<svg xmlns="http://www.w3.org/2000/svg" xmlns:xlink="http://www.w3.org/1999/xlink" viewBox="0 0 80 80"><defs><style>.a,.c{fill:#32a8d2;}.b{clip-path:url(#a);}.c{opacity:0.3;}</style><clipPath id="a"><rect class="a" width="80" height="80" transform="translate(513 991)"/></clipPath></defs><g class="b" transform="translate(-513 -991)"><g transform="translate(513 991)"><path class="c" d="M40,1.983A14.664,14.664,0,0,0,25.833,12.817a14.157,14.157,0,0,0-.5,3.833,14.663,14.663,0,0,0,29.3.983c.017-.317.033-.65.033-.967A14.681,14.681,0,0,0,40,1.983Z"/><path class="a" d="M46.667,15.317h2.667v2.667H46.667Z"/><path class="a" d="M29.333,15.317H32v2.667H29.333Z"/><path class="a" d="M77.333,35.317v3.967a2.018,2.018,0,0,1-.75,1.55C75.767,30.417,67.9,21.183,56,16.733v-.067A16,16,0,0,0,25.2,10.6a14.452,14.452,0,0,0-8.433-2.717c-.767,0-1.917,0-2.117,1.183a1.883,1.883,0,0,0,0,.433V23.25A24.749,24.749,0,0,0,6.517,33.5L.983,35A1.335,1.335,0,0,0,0,36.283v12.45a1.34,1.34,0,0,0,.967,1.283l5.517,1.55A28.755,28.755,0,0,0,16.15,63.583L17.917,78.15a1.331,1.331,0,0,0,1.317,1.167h7.433A1.337,1.337,0,0,0,28,77.983V76.65h5.333a1.337,1.337,0,0,0,1.333-1.333v-4.45a43.942,43.942,0,0,0,5.917.417,46.734,46.734,0,0,0,8.75-.833v4.867a1.337,1.337,0,0,0,1.333,1.333h2.667a1.337,1.337,0,0,0,1.333,1.333h8.567a1.316,1.316,0,0,0,1.317-1.15l1.983-14.25c6.217-5.117,9.767-11.767,10.1-18.85A4.665,4.665,0,0,0,80,39.267V35.3ZM40,3.317A13.33,13.33,0,0,1,53.333,16.65c0,.3-.017.617-.017.883a13.328,13.328,0,0,1-26.633-.883,12.906,12.906,0,0,1,.467-3.483A13.309,13.309,0,0,1,40,3.317ZM2.667,37.3l2.667-.733v11.9l-2.667-.75ZM29.333,73.983v-4.15c.917.217,1.783.417,2.667.583v3.567Zm22.667,0v-3.95c.45-.117.883-.25,1.333-.383v4.317H52ZM74,42.717c-.017,6.783-3.4,13.233-9.533,18.117a1.272,1.272,0,0,0-.483.867l-1.9,13.617h-4.75v-7.9a1.321,1.321,0,0,0-1.783-1.25c-.083.033-.183.05-.267.083a1.315,1.315,0,0,0-1.267.017,17.449,17.449,0,0,1-4.35,1.4,43.62,43.62,0,0,1-9.067.95,42.893,42.893,0,0,1-6.683-.567,1.094,1.094,0,0,0-.35-.133,36.453,36.453,0,0,1-5.15-1.317,1.3,1.3,0,0,0-.867.05l-.067-.017-.5-.133a1.35,1.35,0,0,0-1.617.983,1.026,1.026,0,0,0-.033.317v8.833H20.417l-1.7-13.967a1.361,1.361,0,0,0-.55-.917,26.12,26.12,0,0,1-9.45-11.783,1.292,1.292,0,0,0-.733-.717V35.8a1.38,1.38,0,0,0,.767-.733A22.337,22.337,0,0,1,16.767,25a1.335,1.335,0,0,0,.567-1.083V10.567A11.829,11.829,0,0,1,24.35,13.3c-.067.267-.083.55-.133.833l-.1.6a19.158,19.158,0,0,0-.133,1.95A16.014,16.014,0,0,0,31.15,30.017H25.317v2.667H54.65V30.017H48.783l.05-.033c.25-.167.483-.333.717-.5.15-.117.283-.217.433-.333q.35-.275.7-.6c.133-.117.25-.233.367-.35.233-.217.467-.467.683-.7.1-.117.2-.217.3-.333.233-.267.45-.55.667-.817.067-.1.15-.183.217-.283.233-.333.45-.667.667-1a1.757,1.757,0,0,1,.117-.183,15.88,15.88,0,0,0,1.733-4.1c0-.017.017-.05.017-.067.1-.4.2-.8.267-1.217C66.933,23.9,74.033,32.883,74,42.717Z"/><path class="a" d="M40,20.65a1.337,1.337,0,0,1-1.333-1.333H36a3.967,3.967,0,0,0,2.667,3.75V24.65h2.667V23.067A3.989,3.989,0,0,0,40,15.317a1.333,1.333,0,1,1,1.333-1.333H44a3.967,3.967,0,0,0-2.667-3.75V8.65H38.667v1.583A3.989,3.989,0,0,0,40,17.983a1.333,1.333,0,1,1,0,2.667Z"/><path class="a" d="M18.683,29.95a4.659,4.659,0,0,0-4.667,4.667h2.667a2,2,0,0,1,4,0H23.35A4.67,4.67,0,0,0,18.683,29.95Z"/><path class="a" d="M61.333,29.983a5.328,5.328,0,0,1,5.333,5.333h2.667a8,8,0,0,0-8-8Z"/></g></g></svg>