<svg xmlns="http://www.w3.org/2000/svg" xmlns:xlink="http://www.w3.org/1999/xlink" viewBox="0 0 70 70"><defs><style>.a{fill:#fff;}.b{clip-path:url(#a);}.c,.d{fill:#32a8d2;}.c{opacity:0.3;}</style><clipPath id="a"><rect class="a" width="70" height="70" transform="translate(714 264)"/></clipPath></defs><g class="b" transform="translate(-714 -264)"><g transform="translate(714 271.961)"><path class="c" d="M65.435,4.565H4.565A3.041,3.041,0,0,0,1.526,7.6V34.993a3.041,3.041,0,0,0,3.039,3.039h60.87a3.041,3.041,0,0,0,3.039-3.039V7.6A3.05,3.05,0,0,0,65.435,4.565ZM34.993,33.481A12.175,12.175,0,1,1,47.161,21.3,12.17,12.17,0,0,1,34.993,33.481Z"/><path class="d" d="M65.007,5.892a2.137,2.137,0,0,1,2.14,2.14V34.75a2.137,2.137,0,0,1-2.14,2.14H4.993a2.137,2.137,0,0,1-2.14-2.14V8.031a2.137,2.137,0,0,1,2.14-2.14H65.007m0-2.853H4.993A5.008,5.008,0,0,0,0,8.031V34.75a5.008,5.008,0,0,0,4.993,4.993H65.007A5.008,5.008,0,0,0,70,34.75V8.031a5.017,5.017,0,0,0-4.993-4.993Z"/><path class="d" d="M62.068,38.331v2.04a2.137,2.137,0,0,1-2.14,2.14H10.071a2.137,2.137,0,0,1-2.14-2.14v-2.04H5.078v2.04a5.008,5.008,0,0,0,4.993,4.993H59.929a5.008,5.008,0,0,0,4.993-4.993v-2.04Z"/><path class="d" d="M57.161,45.364a2.134,2.134,0,0,1-2.126,1.9H14.964a2.134,2.134,0,0,1-2.126-1.9H9.986a5.01,5.01,0,0,0,4.993,4.75H55.036a5.02,5.02,0,0,0,4.993-4.75Z"/><path class="d" d="M34.993,7.6A13.695,13.695,0,1,0,48.688,21.3,13.7,13.7,0,0,0,34.993,7.6Zm0,24.351A10.656,10.656,0,1,1,45.649,21.3,10.657,10.657,0,0,1,34.993,31.954Z"/><path class="d" d="M62.953,14.437a10.7,10.7,0,0,1-5.877-5.877A1.522,1.522,0,0,0,55.663,7.6h-8.5v3.039h7.518a13.838,13.838,0,0,0,6.177,6.177v8.959a13.838,13.838,0,0,0-6.177,6.177H47.161v3.039h8.5a1.516,1.516,0,0,0,1.412-.956,10.7,10.7,0,0,1,5.877-5.877,1.522,1.522,0,0,0,.956-1.412V15.835a1.5,1.5,0,0,0-.956-1.4Z"/><path class="d" d="M9.13,25.777V16.833a13.838,13.838,0,0,0,6.177-6.177h7.518V7.6h-8.5a1.516,1.516,0,0,0-1.412.956,10.7,10.7,0,0,1-5.877,5.877,1.522,1.522,0,0,0-.956,1.412V26.762a1.516,1.516,0,0,0,.956,1.412,10.7,10.7,0,0,1,5.877,5.877,1.522,1.522,0,0,0,1.412.956h8.5V31.954H15.307A13.909,13.909,0,0,0,9.13,25.777Z"/></g><g transform="translate(737 284.797)"><path class="d" d="M15,7a2.4,2.4,0,0,0-2.4-2.4h-.8V3H10.2V4.6H7V15.8h3.2v1.6h1.6V15.8h.8A2.4,2.4,0,0,0,15,13.4V11.8a2.386,2.386,0,0,0-.624-1.6A2.385,2.385,0,0,0,15,8.6ZM8.6,6.2h4a.8.8,0,0,1,.8.8V8.6a.8.8,0,0,1-.8.8h-4Zm4.8,7.2a.8.8,0,0,1-.8.8h-4V11h4a.8.8,0,0,1,.8.8Z" transform="translate(1 -1)"/></g></g></svg>