<svg xmlns="http://www.w3.org/2000/svg" viewBox="9134 -1167 72 72"><defs><style>.a{fill:#fff;}.b{fill:#00c1ff;opacity:0.3;}.c,.d{fill:none;}.c{stroke:#0050db;stroke-linecap:round;stroke-linejoin:round;stroke-width:2px;}.e{fill:#0050db;}</style></defs><g transform="translate(9135 -1167)"><g transform="translate(4 13)"><rect class="a" width="60" height="33"/><path class="b" d="M1.5,15V4.5H12Z" transform="translate(-1.5 -4.5)"/><path class="b" d="M28.5,15V4.5H18Z" transform="translate(31.5 -4.5)"/><path class="b" d="M51,22.5H12L1.5,12V22.5h3v6h6v6h42v-6h6v-6h3V12Z" transform="translate(-1.5 10.5)"/><line class="c" y1="10.5" x2="10.5"/><line class="c" x2="10.5" y2="10.5" transform="translate(0 22.5)"/><rect class="c" width="60" height="33"/><line class="c" x1="10.5" y1="10.5" transform="translate(49.5)"/><line class="c" x1="10.5" y2="10.5" transform="translate(49.5 22.5)"/><line class="c" x2="54" transform="translate(3 39)"/><line class="c" x2="42" transform="translate(9 45)"/></g><g transform="translate(-1)"><rect class="d" width="72" height="72"/></g><g transform="translate(22 17.997)"><path class="e" d="M17,8a3,3,0,0,0-3-3H13V3H11V5H7V19h4v2h2V19h1a3,3,0,0,0,3-3V14a2.983,2.983,0,0,0-.78-2A2.981,2.981,0,0,0,17,10ZM9,7h5a1,1,0,0,1,1,1v2a1,1,0,0,1-1,1H9Zm6,9a1,1,0,0,1-1,1H9V13h5a1,1,0,0,1,1,1Z" transform="translate(0 -1)"/></g></g></svg>