<svg xmlns="http://www.w3.org/2000/svg" xmlns:xlink="http://www.w3.org/1999/xlink" viewBox="0 0 70 70"><defs><style>.a,.d{fill:#32a8d2;}.a{stroke:#707070;}.b{clip-path:url(#a);}.c{opacity:0.3;}</style><clipPath id="a"><rect class="a" width="70" height="70" transform="translate(628 502)"/></clipPath></defs><g class="b" transform="translate(-628 -502)"><g transform="translate(628 502)"><g class="c"><path class="d" d="M10.5,64.167V12.833h49v-7H36.167L33.833,1.167H1.167v63a4.667,4.667,0,0,0,9.333,0Z"/><path class="d" d="M17.5,19.833H61.833V31.5H17.5Z"/></g><path class="d" d="M68.833,11.667H60.667V5.833A1.17,1.17,0,0,0,59.5,4.667H36.881l-2-4.025A1.189,1.189,0,0,0,33.833,0H1.167A1.17,1.17,0,0,0,0,1.167v63A5.832,5.832,0,0,0,5.833,70H64.167A5.832,5.832,0,0,0,70,64.167V12.833A1.17,1.17,0,0,0,68.833,11.667Zm-59.5,1.167V64.167a3.5,3.5,0,1,1-7,0V2.333H33.119l2,4.025A1.189,1.189,0,0,0,36.167,7H58.333v4.667H10.5A1.17,1.17,0,0,0,9.333,12.833ZM67.667,64.167a3.492,3.492,0,0,1-3.5,3.5H10.5a5.8,5.8,0,0,0,1.167-3.5V14h56Z"/><path class="d" d="M17.5,32.667H61.833A1.17,1.17,0,0,0,63,31.5V19.833a1.17,1.17,0,0,0-1.167-1.167H17.5a1.17,1.17,0,0,0-1.167,1.167V31.5A1.17,1.17,0,0,0,17.5,32.667ZM18.667,21h42v9.333h-42Z"/><path class="d" d="M38.5,24.5h2.333v2.333H38.5Z"/><path class="d" d="M43.167,24.5H45.5v2.333H43.167Z"/><path class="d" d="M33.833,24.5h2.333v2.333H33.833Z"/><path class="d" d="M21,37.333H58.333v2.333H21Z"/><path class="d" d="M21,44.333H58.333v2.333H21Z"/></g></g></svg>