<svg xmlns="http://www.w3.org/2000/svg" viewBox="9507 -1561 72 72"><defs><style>.a{fill:#fff;}.b{fill:#00c1ff;opacity:0.3;}.c,.d{fill:none;}.c{stroke:#0050db;stroke-linecap:round;stroke-linejoin:round;stroke-width:2px;}</style></defs><g transform="translate(9507 -1561)"><g transform="translate(3 1)"><path class="a" d="M60.5,62V50l-15-19.5V.5H.5v63h45l4.5,6H66.5Z" transform="translate(-0.5 -0.5)"/><path class="b" d="M.5,51.5h39v-6h6V.5Z" transform="translate(-0.5 -0.5)"/><path class="c" d="M45.5,63.5H.5V.5h45v45" transform="translate(-0.5 -0.5)"/><line class="c" x1="39" transform="translate(0 51)"/><line class="c" x2="27" transform="translate(9 21)"/><line class="c" x2="27" transform="translate(9 15)"/><line class="c" x2="27" transform="translate(9 27)"/><line class="c" x2="27" transform="translate(9 33)"/><line class="c" x2="15" transform="translate(9 39)"/><line class="c" x2="9" transform="translate(18 57)"/><line class="c" x2="3" transform="translate(9 57.003)"/><line class="c" x2="3" transform="translate(33 57.003)"/><g transform="translate(39 30)"><path class="c" d="M36.5,49.5l-6-7.5V30l-15-19.5" transform="translate(-9.5 -10.5)"/><path class="c" d="M27,23l-7.5-7.5h-6v6l6,7.2v4.8l4.5,6" transform="translate(-13.5 -0.5)"/></g></g><rect class="d" width="72" height="72"/></g></svg>