<svg xmlns="http://www.w3.org/2000/svg" xmlns:xlink="http://www.w3.org/1999/xlink" viewBox="0 0 70 70"><defs><style>.a{fill:none;stroke:#95989a;}.b{clip-path:url(#a);}.c,.d{opacity:0.3;}.d,.e{fill:#02242b;}</style><clipPath id="a"><rect class="a" width="70" height="70" transform="translate(648.5 695)"/></clipPath></defs><g class="b" transform="translate(-648.5 -695)"><g class="c" transform="translate(648.51 695.008)"><path class="d" d="M52.878,16.591A25.515,25.515,0,0,0,35.413,9.345a4.1,4.1,0,0,0-.423-.015,3.686,3.686,0,0,0-.408.015,25.648,25.648,0,0,0,0,51.289,5.722,5.722,0,0,0,.816,0,25.661,25.661,0,0,0,17.48-44.043Z"/><path class="e" d="M10.5,56.582A32.333,32.333,0,0,1,2.333,34.99,32.66,32.66,0,0,1,51.887,7.042l1.21-2A35,35,0,0,0,0,34.99,34.638,34.638,0,0,0,8.922,58.316H4.665v2.333h7a1.17,1.17,0,0,0,1.166-1.166v-7H10.5Z"/><path class="e" d="M61.057,11.663h4.257V9.331h-7A1.17,1.17,0,0,0,57.15,10.5v7h2.333V13.4A32.288,32.288,0,0,1,67.647,34.99,32.671,32.671,0,0,1,18.078,62.938l-1.21,2A35.01,35.01,0,0,0,69.98,34.99a34.638,34.638,0,0,0-8.922-23.327Z"/><path class="e" d="M34.99,61.815a3.2,3.2,0,0,0,.423-.015H35.5A26.817,26.817,0,0,0,53.68,15.745,26.531,26.531,0,0,0,35.5,8.179a4.987,4.987,0,0,0-.933,0A26.827,26.827,0,0,0,16.3,54.234,26.466,26.466,0,0,0,34.48,61.8c.16.015.335.015.51.015Zm1.166-12.771a30.7,30.7,0,0,1,6.517.948,30.466,30.466,0,0,1-6.517,7.931V49.044Zm-2.333,8.879a30.466,30.466,0,0,1-6.517-7.931,30.7,30.7,0,0,1,6.517-.948Zm11.124-7.246a29.408,29.408,0,0,1,5.992,2.872,24.135,24.135,0,0,1-12.771,5.7,32.5,32.5,0,0,0,6.779-8.573Zm-1.181-2.814a32.7,32.7,0,0,0-7.61-1.166V36.156H46.624a29.563,29.563,0,0,1-2.858,11.707Zm-7.61-14.04V23.283a32.7,32.7,0,0,0,7.61-1.166,29.875,29.875,0,0,1,2.858,11.707ZM33.824,20.95A30.7,30.7,0,0,1,27.307,20a30.466,30.466,0,0,1,6.517-7.931Zm2.333-8.879A30.466,30.466,0,0,1,42.673,20a30.7,30.7,0,0,1-6.517.948V12.072Zm8.791,7.246a32.854,32.854,0,0,0-6.794-8.587,24.15,24.15,0,0,1,12.786,5.715A31.023,31.023,0,0,1,44.947,19.317Zm-19.915,0a29.408,29.408,0,0,1-5.992-2.872,24.135,24.135,0,0,1,12.771-5.7A32.8,32.8,0,0,0,25.032,19.317Zm1.181,2.8a32.822,32.822,0,0,0,7.61,1.166V33.824H23.356a29.937,29.937,0,0,1,2.858-11.707Zm7.61,14.04V46.7a32.7,32.7,0,0,0-7.61,1.166,29.937,29.937,0,0,1-2.858-11.707ZM25.032,50.677a32.854,32.854,0,0,0,6.794,8.587A24.15,24.15,0,0,1,19.04,53.549,31.023,31.023,0,0,1,25.032,50.677Zm27.657,1.21a32.628,32.628,0,0,0-6.663-3.309,32.124,32.124,0,0,0,2.945-12.421H59.439A24.334,24.334,0,0,1,52.689,51.887Zm6.736-18.064H48.957A31.865,31.865,0,0,0,46.012,21.4a32.742,32.742,0,0,0,6.677-3.309A24.276,24.276,0,0,1,59.424,33.824ZM17.305,18.093A32.375,32.375,0,0,0,23.983,21.4a32.124,32.124,0,0,0-2.945,12.421H10.555a24.292,24.292,0,0,1,6.75-15.731Zm-6.75,18.064H21.023a31.865,31.865,0,0,0,2.945,12.421,32.742,32.742,0,0,0-6.677,3.309A24.318,24.318,0,0,1,10.555,36.156Z"/></g></g></svg>