<svg xmlns="http://www.w3.org/2000/svg" viewBox="0 0 103 41"><defs><style>.a{fill:#cb202f;}.b{fill:#101820;}</style></defs><g transform="translate(0 -0.743)"><path class="a" d="M10.01.744q2.244,0,4.488,0,0,1.659-.014,3.317,2.751,0,5.506,0c0-1.106-.006-2.211-.006-3.317q2.244,0,4.488,0c-.01,1.1-.014,2.209-.024,3.313,2.263,0,4.525,0,6.789,0a5.591,5.591,0,0,1,4.3,2.017,8.778,8.778,0,0,1,1.511,6.055,7.032,7.032,0,0,1-2.573,5.313A6.222,6.222,0,0,1,30.6,18.489q-5.308-.007-10.612,0c-.006-3.317,0-6.635,0-9.952q-2.751,0-5.5,0,.014,4.975.013,9.952c-4.833-.011-9.664.019-14.5-.014V4.072c3.341-.029,6.683-.006,10.024-.011,0-1.1-.011-2.211-.014-3.317m-5.49,7.8c.013,1.821,0,3.643.006,5.463q2.742,0,5.483,0c0-1.825.011-3.649.013-5.474-1.834.011-3.668-.01-5.5.011m19.927-.01c.01,1.825.013,3.649.024,5.474,2.151,0,4.3,0,6.456,0a1.821,1.821,0,0,0,1.594-1.076,3.732,3.732,0,0,0,0-3.331,1.817,1.817,0,0,0-1.615-1.063C28.754,8.534,26.6,8.539,24.448,8.536Z" transform="translate(0 0)"/><path class="b" d="M368.257,24.18c.811-.334,1.969.225,1.85,1.192-.115,1.231-2.114,1.359-2.565.291A1.142,1.142,0,0,1,368.257,24.18Z" transform="translate(-308.597 -19.609)"/><path class="b" d="M562.239,24.175a1.328,1.328,0,0,1,1.841,1.178c-.114,1.183-1.969,1.4-2.521.438A1.151,1.151,0,0,1,562.239,24.175Z" transform="translate(-471.496 -19.616)"/><path class="b" d="M295.743,29.745c1.722,0,3.442-.006,5.163,0a4.71,4.71,0,0,1,3.084.97,2.88,2.88,0,0,1,.694,2.9,4.04,4.04,0,0,1-1.661,1.976,2.968,2.968,0,0,1,1.352,5.329,5.419,5.419,0,0,1-3.3.972c-1.773.01-3.547,0-5.318.006-.021-4.05,0-8.1-.01-12.149m1.884,1.8q0,1.738,0,3.476c1.04-.006,2.078.01,3.117,0a2.011,2.011,0,0,0,1.748-.945,1.677,1.677,0,0,0-.235-1.955,2.421,2.421,0,0,0-1.676-.574c-.985,0-1.97,0-2.954,0m0,5.075q0,1.719,0,3.437c1.2,0,2.393.006,3.591,0A2.154,2.154,0,0,0,303.239,39a1.514,1.514,0,0,0-.793-2.108C300.893,36.4,299.228,36.7,297.626,36.616Z" transform="translate(-248.367 -24.364)"/><path class="b" d="M394.977,37.638c.652-.077,1.3-.157,1.959-.208,0,.735,0,1.472,0,2.209.754,0,1.511,0,2.267-.006.016.492.019.986.014,1.48-.761.011-1.522,0-2.283.006,0,1.517,0,3.034,0,4.549a1.113,1.113,0,0,0,.6,1.154,3.835,3.835,0,0,0,1.8-.034c0,.524,0,1.047-.011,1.571a5.164,5.164,0,0,1-3.021.032,2.289,2.289,0,0,1-1.334-2.244c0-1.674,0-3.349.006-5.022-.495-.008-.992-.011-1.487-.008q0-.738,0-1.477.74,0,1.483-.006Q394.972,38.637,394.977,37.638Z" transform="translate(-330.46 -30.823)"/><path class="b" d="M437.655,51.562a6.17,6.17,0,0,1,6.864-1.28q0,.906,0,1.813a5.322,5.322,0,0,0-3.5-.539,2.79,2.79,0,0,0-1.821,4.4,3.521,3.521,0,0,0,2.952,1.328,6.261,6.261,0,0,0,2.565-.706c0,.606.01,1.21-.019,1.814a7.794,7.794,0,0,1-5.051.134,4.4,4.4,0,0,1-2.666-2.438A4.45,4.45,0,0,1,437.655,51.562Z" transform="translate(-366.708 -41.191)"/><path class="b" d="M495,49.926a5.7,5.7,0,0,1,4.669.887,4.648,4.648,0,0,1,.125,6.94,5.235,5.235,0,0,1-3.452,1.133,5.12,5.12,0,0,1-3.522-1.261,4.667,4.667,0,0,1-.189-6.406A4.72,4.72,0,0,1,495,49.926m.3,1.741c-2.138.611-2.443,3.934-.606,5.062a3.367,3.367,0,0,0,3.516-.112,3,3,0,0,0,.586-3.993A3.142,3.142,0,0,0,495.3,51.667Z" transform="translate(-412.725 -41.195)"/><path class="b" d="M591.825,51a4.651,4.651,0,0,1,5.038-.9,3.428,3.428,0,0,1,1.621,2.946v5.628h-1.921c-.021-1.7.032-3.392-.029-5.086-.034-.714-.149-1.616-.886-1.948a3.087,3.087,0,0,0-3.47,1.114c-.232.222-.173.558-.187.846.01,1.691,0,3.382,0,5.073q-1,0-2,0c0-2.917-.008-5.834,0-8.751C590.611,50.274,591.214,50.643,591.825,51Z" transform="translate(-495.484 -41.145)"/><path class="b" d="M369.75,51.25h1.958q0,4.356,0,8.711h-1.959Q369.746,55.6,369.75,51.25Z" transform="translate(-310.518 -42.434)"/><path class="b" d="M563.25,51.252q1,0,2,0,0,4.356,0,8.711-1,0-2,0Z" transform="translate(-473.025 -42.434)"/><path class="a" d="M0,146.014c.638-.056,1.278-.032,1.917-.034H14.5q0,5,0,10c1.829-.011,3.657-.014,5.486,0q0-5,0-10,4.83,0,9.658,0A10.858,10.858,0,0,1,33,146.3a5.215,5.215,0,0,1,2.89,2.227,9.085,9.085,0,0,1,1.181,5.108,7.663,7.663,0,0,1-2.018,5.265,5.784,5.784,0,0,1-4.136,1.546c-2.15,0-4.3-.013-6.451-.013,0,1.109,0,2.217,0,3.326q-2.244,0-4.487,0,0-1.666,0-3.331c-1.829.016-3.657.013-5.486,0,0,1.111,0,2.22,0,3.329H10.012q0-1.664,0-3.329c-3.337,0-6.675.029-10.012,0V146.014M4.525,150.5c0,1.824,0,3.648,0,5.471,1.829,0,3.657.011,5.486.013-.006-1.829,0-3.657,0-5.486-1.828,0-3.655,0-5.485,0m19.946,0c0,1.829,0,3.657,0,5.487,2.143-.008,4.288,0,6.433-.021a1.8,1.8,0,0,0,1.418-.758,3.668,3.668,0,0,0,.356-3.323,1.954,1.954,0,0,0-1.6-1.381C28.877,150.491,26.674,150.5,24.472,150.5Z" transform="translate(0 -122.02)"/><path class="b" d="M429.5,146.572a1.32,1.32,0,0,1,1.932,1.074c-.027,1.167-1.789,1.447-2.424.6A1.109,1.109,0,0,1,429.5,146.572Z" transform="translate(-360.104 -122.406)"/><path class="b" d="M294.288,151.325a5.169,5.169,0,0,1,3.535-1.073,8.418,8.418,0,0,1,3.893,1.031c-.03.714-.01,1.429-.018,2.143a8.276,8.276,0,0,0-4.037-1.264,2.6,2.6,0,0,0-1.719.5,1.419,1.419,0,0,0-.165,1.976,4.364,4.364,0,0,0,2.038,1.028c1.413.417,2.965.659,4.134,1.622a3.264,3.264,0,0,1,.521,3.628,3.564,3.564,0,0,1-2.923,1.972,10.256,10.256,0,0,1-6.127-1.041c-.018-.756-.011-1.514,0-2.271a8.64,8.64,0,0,0,5.546,1.459,1.665,1.665,0,0,0,1.528-1.208,1.33,1.33,0,0,0-.713-1.5c-1.6-.874-3.524-.876-5.115-1.776a2.646,2.646,0,0,1-1.352-1.694A3.64,3.64,0,0,1,294.288,151.325Z" transform="translate(-246.236 -125.612)"/><path class="b" d="M456.392,172.539a8.55,8.55,0,0,1,5.9.216c0,.593,0,1.186,0,1.777a7.74,7.74,0,0,0-4.122-.722c-.432.061-.977.217-1.113.69-.112.436.3.772.657.921,1.44.587,3.141.526,4.424,1.485,1.3,1.026.7,3.286-.77,3.841a8.656,8.656,0,0,1-6.126-.163c0-.588,0-1.176,0-1.763a9.379,9.379,0,0,0,4.235.735c.54-.034,1.222-.285,1.254-.917.045-.593-.6-.876-1.076-1-1.342-.336-2.845-.39-3.966-1.293A2.311,2.311,0,0,1,456.392,172.539Z" transform="translate(-382.083 -143.976)"/><path class="b" d="M512.455,172.279a9.342,9.342,0,0,1,4.73.54c0,.595,0,1.189,0,1.784a6.845,6.845,0,0,0-4.661-.583.705.705,0,0,0-.2,1.306c1.515.814,3.46.595,4.825,1.739a2.362,2.362,0,0,1-.857,3.732,8.721,8.721,0,0,1-6.15-.129c-.016-.6-.01-1.2-.014-1.8a9.6,9.6,0,0,0,3.609.786,3.194,3.194,0,0,0,1.477-.269.819.819,0,0,0,.128-1.327,4.352,4.352,0,0,0-1.738-.555,6.412,6.412,0,0,1-3.1-1.159,2.319,2.319,0,0,1-.434-2.581A2.891,2.891,0,0,1,512.455,172.279Z" transform="translate(-428.205 -144.041)"/><path class="b" d="M565.373,174.186a5.065,5.065,0,0,1,7.023-1.14,4.668,4.668,0,0,1,1.4,4.317c-2.359.006-4.719,0-7.08.006a2.481,2.481,0,0,0,1.578,1.837,6.019,6.019,0,0,0,4.987-.372q-.007.87,0,1.741a8.771,8.771,0,0,1-4.256.614,4.853,4.853,0,0,1-3.553-1.886,4.65,4.65,0,0,1-.1-5.116m1.36,1.7c1.727-.008,3.454.018,5.18-.014a2.587,2.587,0,0,0-1.238-1.905A2.76,2.76,0,0,0,566.733,175.887Z" transform="translate(-474.204 -143.975)"/><path class="b" d="M363.233,178.491c.014-1.683-.019-3.368.018-5.051.647.013,1.3.01,1.946.01.019,1.729-.037,3.462.029,5.19.034.73.17,1.683.961,1.976a3.167,3.167,0,0,0,3.465-1.429c.072-1.908.008-3.825.03-5.737.652,0,1.3,0,1.954,0,.018,2.9,0,5.809.008,8.713-.6,0-1.209.013-1.813-.014-.032-.3-.066-.606-.095-.906a5.039,5.039,0,0,1-4.456,1.073,2.394,2.394,0,0,1-1.483-1.063A5.116,5.116,0,0,1,363.233,178.491Z" transform="translate(-305.047 -145.094)"/><path class="b" d="M431,173.5c.666,0,1.333,0,2,0,.006,2.9,0,5.8,0,8.7-.668.01-1.338.006-2.006.006Z" transform="translate(-361.96 -145.141)"/></g></svg>