<svg xmlns="http://www.w3.org/2000/svg" xmlns:xlink="http://www.w3.org/1999/xlink" viewBox="0 0 147.548 44">
  <defs>
    <style>
      .cls-1 {
        fill: none;
      }

      .cls-2 {
        fill: #02242b;
      }

      .cls-3 {
        clip-path: url(#clip-path);
      }

      .cls-4 {
        clip-path: url(#clip-path-2);
      }

      .cls-5 {
        fill: url(#linear-gradient);
      }

      .cls-6 {
        clip-path: url(#clip-path-3);
      }

      .cls-7 {
        fill: url(#linear-gradient-3);
      }
    </style>
    <clipPath id="clip-path">
      <path id="Path_91" data-name="Path 91" class="cls-1" d="M20.891,14.836l.58-.492C32.933,4.772,20.488-3.119,16,1.22a4.516,4.516,0,0,0-1.328,3.247c0,2.391.364,8.914-10.094,15.8h0a50.236,50.236,0,0,0,16.311-5.431" transform="translate(-4.58 0.001)"/>
    </clipPath>
    <clipPath id="clip-path-2">
      <rect id="Rectangle_134" data-name="Rectangle 134" class="cls-1" width="153.728" height="43.978"/>
    </clipPath>
    <linearGradient id="linear-gradient" x1="-0.077" y1="24.409" x2="-0.076" y2="24.409" gradientUnits="objectBoundingBox">
      <stop offset="0" stop-color="#9fb2d7"/>
      <stop offset="0.49" stop-color="#b7c7e0"/>
      <stop offset="0.99" stop-color="#cfd6e6"/>
      <stop offset="1" stop-color="#cfd6e6"/>
    </linearGradient>
    <clipPath id="clip-path-3">
      <path id="Path_92" data-name="Path 92" class="cls-1" d="M17.226,39.116ZM20.3,30.881c-4.8-1.063-7.388-2.666-7.457-5.146h0c-.059-2.528,2.489-5.962,7.979-10.626A50.712,50.712,0,0,1,4.506,20.541l-1.21.777c-10.123,6.218,5.5,8.274,13.773,17.709a.512.512,0,0,0,.108.128,17.385,17.385,0,0,1,1.2,1.427C26.346,51.571,37.532,34.679,20.3,30.881Z" transform="translate(0.006 -15.11)"/>
    </clipPath>
    <linearGradient id="linear-gradient-3" x1="0.005" y1="24.218" x2="0.007" y2="24.218" xlink:href="#linear-gradient"/>
  </defs>
  <g id="LOGO" transform="translate(-12.924 0.001)">
    <path id="Path_78" data-name="Path 78" class="cls-2" d="M61.324,37.715l-3.4-8.235h-1.2l4.112,9.632h.954L65.9,29.48H64.738Z" transform="translate(-0.71 -0.476)"/>
    <path id="Path_79" data-name="Path 79" class="cls-2" d="M73.212,34.714h5.214V33.73H73.212V30.464h5.834V29.48H72.13v9.563h6.985v-.984h-5.9Z" transform="translate(-0.959 -0.476)"/>
    <path id="Path_80" data-name="Path 80" class="cls-2" d="M92.634,37.144,86.613,29.48H85.6v9.563h1.053V31.2l6.178,7.841h.856V29.48H92.634Z" transform="translate(-1.177 -0.476)"/>
    <path id="Path_81" data-name="Path 81" class="cls-2" d="M100.04,30.474h3.217v8.569h1.072V30.474h3.217V29.48H100.04Z" transform="translate(-1.411 -0.476)"/>
    <path id="Path_82" data-name="Path 82" class="cls-2" d="M107.7,35.039a3.247,3.247,0,0,1-.777,2.361,3.2,3.2,0,0,1-4.26,0,3.394,3.394,0,0,1-.767-2.391V29.48H100.81v5.559a5.175,5.175,0,0,0,.285,1.791,3.561,3.561,0,0,0,.817,1.309,3.394,3.394,0,0,0,1.259.787,5.1,5.1,0,0,0,3.256,0,3.355,3.355,0,0,0,1.259-.8A3.611,3.611,0,0,0,108.5,36.8a5.382,5.382,0,0,0,.285-1.84V29.48h-1.082v5.559Z" transform="translate(11.297 -0.476)"/>
    <path id="Path_83" data-name="Path 83" class="cls-2" d="M120.648,35.137a3.777,3.777,0,0,0,1.043-.325,3.02,3.02,0,0,0,.826-.58,2.322,2.322,0,0,0,.531-.826,2.775,2.775,0,0,0,.2-1.063A2.735,2.735,0,0,0,123,31.172a2.558,2.558,0,0,0-.7-.905,3.276,3.276,0,0,0-1.082-.58,4.614,4.614,0,0,0-1.426-.207H115.68v9.563h1.072V35.324h2.735l2.774,3.719h1.328Zm-3.935-.767V30.434h2.951a2.843,2.843,0,0,1,1.81.512,1.663,1.663,0,0,1,.649,1.407,1.889,1.889,0,0,1-.177.836,1.83,1.83,0,0,1-.512.63,2.568,2.568,0,0,1-.787.384,3.256,3.256,0,0,1-.984.138h-2.951Z" transform="translate(11.056 -0.476)"/>
    <path id="Path_84" data-name="Path 84" class="cls-2" d="M143.892,34.714h5.214V33.73h-5.214V30.464h5.834V29.48H142.81v9.563H149.8v-.984h-5.9Z" transform="translate(-2.104 -0.476)"/>
    <path id="Path_85" data-name="Path 85" class="cls-2" d="M146.763,33.728a9.473,9.473,0,0,1-1.3-.344,2.952,2.952,0,0,1-.787-.413,1.2,1.2,0,0,1-.393-.5,1.643,1.643,0,0,1-.108-.62,1.358,1.358,0,0,1,.148-.62,1.427,1.427,0,0,1,.413-.492,2.145,2.145,0,0,1,.639-.325,2.686,2.686,0,0,1,.836-.128,4.1,4.1,0,0,1,1.417.246,4.653,4.653,0,0,1,1.348.8l.63-.836a5.588,5.588,0,0,0-1.525-.876,5.312,5.312,0,0,0-1.84-.285,3.837,3.837,0,0,0-1.259.2,3.177,3.177,0,0,0-.984.551,2.45,2.45,0,0,0-.659.826,2.4,2.4,0,0,0-.246,1.053A2.578,2.578,0,0,0,143.28,33a2.076,2.076,0,0,0,.59.767,3.591,3.591,0,0,0,.984.561,10.055,10.055,0,0,0,1.426.413,9.583,9.583,0,0,1,1.24.344,2.735,2.735,0,0,1,.758.394,1.23,1.23,0,0,1,.384.482,1.594,1.594,0,0,1,.108.61,1.436,1.436,0,0,1-.58,1.19,2.45,2.45,0,0,1-1.554.453,4.368,4.368,0,0,1-1.761-.335,5.637,5.637,0,0,1-1.515-.984l-.669.8a5.9,5.9,0,0,0,1.84,1.151,5.735,5.735,0,0,0,2.1.374,4.319,4.319,0,0,0,1.308-.187,3.02,3.02,0,0,0,.984-.551,2.519,2.519,0,0,0,.669-.866,2.548,2.548,0,0,0,.246-1.122,2.135,2.135,0,0,0-.758-1.741,5.637,5.637,0,0,0-2.312-1.023Z" transform="translate(10.618 -0.474)"/>
    <path id="Path_86" data-name="Path 86" class="cls-2" d="M63.99,13.551l7.7-7.861H69.077L58.747,16.434V5.69H56.72V23.675h2.027V18.844l3.827-3.876,6.906,8.707h2.548Z" transform="translate(-0.71 -0.092)"/>
    <path id="Path_87" data-name="Path 87" class="cls-2" d="M104.588,15.509,98.046,5.69H95.99V23.675h1.977V9.133l6.552,9.612h.1l6.552-9.632V23.675H113.2V5.69h-2.056Z" transform="translate(-1.346 -0.092)"/>
    <path id="Path_88" data-name="Path 88" class="cls-2" d="M119.9,17.1a3.936,3.936,0,0,0-.826-1.23,4.8,4.8,0,0,0-1.21-.885,7.969,7.969,0,0,0-1.505-.6,5.9,5.9,0,0,0,1.043-.58,4.083,4.083,0,0,0,.915-.856,4,4,0,0,0,.649-1.181,4.536,4.536,0,0,0,.236-1.564,4.162,4.162,0,0,0-.413-1.869A3.857,3.857,0,0,0,117.6,6.929a5.735,5.735,0,0,0-1.83-.935,8.411,8.411,0,0,0-2.41-.325H105.72V23.7H113.7a9.838,9.838,0,0,0,2.666-.335,6.188,6.188,0,0,0,2.066-.984,4.27,4.27,0,0,0,1.338-1.564,4.546,4.546,0,0,0,.462-2.086A4.143,4.143,0,0,0,119.9,17.1ZM107.747,7.49h5.46a4.7,4.7,0,0,1,2.951.8,2.617,2.617,0,0,1,.984,2.164,2.8,2.8,0,0,1-1.122,2.43,4.919,4.919,0,0,1-2.951.826h-5.3V7.49ZM117,21.028a5.44,5.44,0,0,1-3.237.856h-6.021V15.508h5.667a6.414,6.414,0,0,1,3.561.817,2.627,2.627,0,0,1,1.2,2.3A2.794,2.794,0,0,1,117,21.028Z" transform="translate(11.217 -0.092)"/>
    <rect id="Rectangle_131" data-name="Rectangle 131" class="cls-2" width="2.027" height="17.985" transform="translate(135.669 5.598)"/>
    <path id="Path_89" data-name="Path 89" class="cls-2" d="M149.048,11.1A8.933,8.933,0,0,0,144.3,6.128a9.628,9.628,0,0,0-7.487.02,8.785,8.785,0,0,0-2.951,2.037,9.5,9.5,0,0,0-1.879,2.952,9.937,9.937,0,0,0,0,7.113,8.943,8.943,0,0,0,8.49,5.716,9.218,9.218,0,0,0,3.748-.758,8.854,8.854,0,0,0,2.9-2.046A9.022,9.022,0,0,0,149,18.209a9.485,9.485,0,0,0,.669-3.552,9.662,9.662,0,0,0-.62-3.562Zm-1.968,6.5a7.448,7.448,0,0,1-1.456,2.351,6.631,6.631,0,0,1-2.223,1.574,6.886,6.886,0,0,1-2.843.58,6.739,6.739,0,0,1-2.843-.59,7.054,7.054,0,0,1-3.729-3.935,7.949,7.949,0,0,1-.521-2.9,7.812,7.812,0,0,1,.521-2.893,7.39,7.39,0,0,1,1.456-2.361,6.552,6.552,0,0,1,2.223-1.574,6.886,6.886,0,0,1,2.843-.58,6.739,6.739,0,0,1,2.843.59,7.054,7.054,0,0,1,3.729,3.935,7.97,7.97,0,0,1,.521,2.952,7.871,7.871,0,0,1-.541,2.853Z" transform="translate(10.802 -0.087)"/>
    <path id="Path_90" data-name="Path 90" class="cls-2" d="M92.079,23.673,83.894,5.56H81.985L73.8,23.673h2.076L82.91,7.951,89.9,23.673Z" transform="translate(-0.986 -0.09)"/>
    <g id="Group_3353" data-name="Group 3353" class="cls-3" transform="translate(17.436 -0.001)">
      <g id="Group_3352" data-name="Group 3352" class="cls-4" transform="translate(-4.506 0.001)">
        <rect id="Rectangle_132" data-name="Rectangle 132" class="cls-5" width="153.728" height="43.978"/>
        <rect id="Rectangle_133" data-name="Rectangle 133" class="cls-5" width="153.728" height="43.978"/>
      </g>
    </g>
    <g id="Group_3354" data-name="Group 3354" class="cls-6" transform="translate(12.924 14.866)">
      <rect id="Rectangle_135" data-name="Rectangle 135" class="cls-7" width="153.728" height="43.978" transform="translate(-12.714 -5.411)"/>
    </g>
  </g>
</svg>
