<svg xmlns="http://www.w3.org/2000/svg" xmlns:xlink="http://www.w3.org/1999/xlink" viewBox="0 0 1103.665 498.619"><defs><style>.a{opacity:0.3;}.b{fill:#a7eede;}.c{fill:#daf8e9;}.d{fill:#82c5b2;}.e{fill:url(#a);}</style><linearGradient id="a" x1="1.962" y1="0.567" x2="2.029" y2="0.298" gradientUnits="objectBoundingBox"><stop offset="0.62" stop-color="#e9fff4"/><stop offset="1" stop-color="#daf8e9"/></linearGradient></defs><g class="a" transform="translate(68.857 -43.468) rotate(9)"><path class="b" d="M1062.47,741.288c-92.667,54.85-87.765,2.581-164.74,48.569l-261.3,154.637L421.557,817.345c-30.062-17.8-45.132-41.071-45.237-64.29V731.828h4.145c6.29-15.7,19.761-30.57,40.412-42.8l153.845-91.043c32.389-19.167,82.174-23.612,123-11l364.77,134.607Z" transform="translate(-376.32 -504.328)"/><path class="b" d="M1454,600.586v19.49h0c.163,6.821-4.126,13.661-12.887,18.843l-30.5,18.058c-19.339,11.433-49.048,14.1-73.4,6.565l-58.842-18.175c-9.449-2.944-20.957-1.9-28.435,2.542l-157.483,93.143L1080,588.652l154.946,44.162V622.107h54.572l92.868-54.958,56.553,33.455Z" transform="translate(-406.296 -504.091)"/><path class="c" d="M1425.886,617.987l-30.512,18.058c-19.32,11.433-49.038,14.1-73.394,6.565l-58.851-18.185c-9.43-2.944-20.938-1.894-28.425,2.542L1077.229,720.2,723,546.905l43.5-25.889c32.389-19.166,82.164-23.622,123-11l337.005,103.919c10.254,3.17,22.767,2.051,30.9-2.768l109.737-64.987,58.583,34.653C1443.08,591.126,1443.167,607.761,1425.886,617.987Z" transform="translate(-391.088 -502.895)"/><path class="d" d="M636.427,580.31V944.5L421.557,817.354c-30.062-17.8-45.132-41.071-45.237-64.291V731.836h4.145c6.29-15.7,19.761-30.57,40.412-42.8l153.845-91.043C591.755,587.916,613.612,581.9,636.427,580.31Z" transform="translate(-376.32 -504.336)"/><path class="e" d="M708.232,547.74c-92.676,54.84-87.765,2.581-164.74,48.569s-122.614,72.4-122.614,72.4c-59.684,35.33-59.359,92.77.68,128.306L636.427,924.2S820.736,815.55,897.721,769.562s72.073,6.281,164.74-48.569" transform="translate(-376.32 -503.73)"/></g></svg>